<svg width="38" height="39" viewBox="0 0 38 39" fill="none" xmlns="http://www.w3.org/2000/svg">
<g clip-path="url(#clip0_157_339)">
<path d="M27.9062 6.80396H10.0938C8.2522 6.80396 6.75391 8.30225 6.75391 10.1438V27.9563C6.75391 29.7979 8.2522 31.2961 10.0938 31.2961H27.9062C29.7478 31.2961 31.2461 29.7979 31.2461 27.9563V10.1438C31.2461 8.30225 29.7478 6.80396 27.9062 6.80396ZM19 26.843C14.7034 26.843 11.207 23.3466 11.207 19.05C11.207 14.7535 14.7034 11.2571 19 11.2571C23.2966 11.2571 26.793 14.7535 26.793 19.05C26.793 23.3466 23.2966 26.843 19 26.843ZM26.793 13.4836C25.5655 13.4836 24.5664 12.4846 24.5664 11.2571C24.5664 10.0296 25.5655 9.03052 26.793 9.03052C28.0205 9.03052 29.0195 10.0296 29.0195 11.2571C29.0195 12.4846 28.0205 13.4836 26.793 13.4836Z" fill="#001466"/>
<path d="M19 13.4836C15.9309 13.4836 13.4336 15.981 13.4336 19.05C13.4336 22.1191 15.9309 24.6165 19 24.6165C22.0691 24.6165 24.5664 22.1191 24.5664 19.05C24.5664 15.981 22.0691 13.4836 19 13.4836Z" fill="#001466"/>
<path d="M32.3594 0.0500488H5.64062C2.57156 0.0500488 0 2.62161 0 5.69067V32.4094C0 35.4785 2.57156 38.05 5.64062 38.05H32.3594C35.4284 38.05 38 35.4785 38 32.4094V5.69067C38 2.62161 35.4284 0.0500488 32.3594 0.0500488ZM33.4727 27.9563C33.4727 31.0254 30.9753 33.5227 27.9062 33.5227H10.0938C7.02469 33.5227 4.52734 31.0254 4.52734 27.9563V10.1438C4.52734 7.07474 7.02469 4.57739 10.0938 4.57739H27.9062C30.9753 4.57739 33.4727 7.07474 33.4727 10.1438V27.9563Z" fill="#001466"/>
</g>
<defs>
<clipPath id="clip0_157_339">
<rect width="38" height="38" fill="white" transform="translate(0 0.0500488)"/>
</clipPath>
</defs>
</svg>
