<svg width="44" height="45" viewBox="0 0 44 45" fill="none" xmlns="http://www.w3.org/2000/svg">
<path d="M39.6004 39.6504V26.7584C39.6004 20.4224 38.2364 15.5824 30.8444 15.5824C27.2804 15.5824 24.9044 17.5184 23.9364 19.3664H23.8484V16.1544H16.8524V39.6504H24.1564V27.9904C24.1564 24.9104 24.7284 21.9624 28.5124 21.9624C32.2524 21.9624 32.2964 25.4384 32.2964 28.1664V39.6064H39.6004V39.6504Z" fill="#001466"/>
<path d="M4.97266 16.1545H12.2767V39.6505H4.97266V16.1545Z" fill="#001466"/>
<path d="M8.62439 4.45044C6.29239 4.45044 4.40039 6.34244 4.40039 8.67444C4.40039 11.0064 6.29239 12.9424 8.62439 12.9424C10.9564 12.9424 12.8484 11.0064 12.8484 8.67444C12.8484 6.34244 10.9564 4.45044 8.62439 4.45044Z" fill="#001466"/>
</svg>
