<svg width="345" height="60" viewBox="0 0 345 60" fill="none" xmlns="http://www.w3.org/2000/svg">
<path d="M8.80951 55.9047C9.51011 55.6122 10.108 55.1181 10.5271 54.4851C10.9427 53.8289 11.1537 53.064 11.1334 52.2875C11.1549 51.5014 10.944 50.7265 10.5271 50.0597C10.1075 49.4235 9.51023 48.9246 8.80951 48.6249C7.97035 48.2734 7.06692 48.1013 6.15728 48.1197H1.20142V59.5773H3.84859V56.3947H6.27853L8.48114 59.5925H11.3455L8.7893 55.9147L8.80951 55.9047ZM7.84461 50.8124C8.2327 51.2032 8.45049 51.7317 8.45049 52.2825C8.45049 52.8333 8.2327 53.3617 7.84461 53.7526C7.31394 54.1359 6.66291 54.3153 6.01078 54.2578H3.84859V50.2617H6.01078C6.6683 50.2195 7.31911 50.4149 7.84461 50.8124Z" fill="white"/>
<path d="M22.4232 54.8033H27.7377V52.7421H22.4232V50.2566H28.445V48.1298H19.7861V59.5873H28.6572V57.4555H22.4232V54.8033Z" fill="white"/>
<path d="M45.2888 55.0811L39.5953 48.1298H37.3978V59.5873H40.0197V52.6309L45.7333 59.5873H47.9107V48.1298H45.2888V55.0811Z" fill="white"/>
<path d="M59.7973 54.8033H65.1169V52.7421H59.7973V50.2566H65.8192V48.1298H57.1603V59.5873H66.0313V57.4555H59.7973V54.8033Z" fill="white"/>
<path d="M86.7581 56.243L84.1413 48.1298H81.686L78.9833 56.1824L76.3968 48.1298H73.6486L77.397 59.5873H80.2463L82.8429 51.8227L85.3689 59.5873H88.2181L91.9615 48.1298H89.4255L86.7581 56.243Z" fill="white"/>
<path d="M119.02 55.9048C119.721 55.6123 120.319 55.1182 120.738 54.4852C121.154 53.829 121.365 53.0641 121.344 52.2876C121.366 51.5015 121.155 50.7266 120.738 50.0598C120.318 49.4236 119.721 48.9247 119.02 48.6251C118.181 48.2735 117.278 48.1014 116.368 48.1199H111.412V59.5775H114.059V56.3948H116.489L118.692 59.5926H121.556L119 55.9149L119.02 55.9048ZM118.055 50.8125C118.444 51.2034 118.661 51.7318 118.661 52.2826C118.661 52.8334 118.444 53.3618 118.055 53.7527C117.525 54.1361 116.874 54.3154 116.222 54.2579H114.059V50.2618H116.222C116.879 50.2196 117.53 50.4151 118.055 50.8125Z" fill="white"/>
<path d="M132.634 54.8033H137.954V52.7421H132.634V50.2566H138.656V48.1298H129.997V59.5873H138.868V57.4555H132.634V54.8033Z" fill="white"/>
<path d="M152.581 56.3138L149.1 48.1298H146.235L151.176 59.5873H153.798L158.754 48.1298H156.122L152.581 56.3138Z" fill="white"/>
<path d="M169.17 48.1298H166.518V59.5873H169.17V48.1298Z" fill="white"/>
<path d="M183.275 56.3138L179.794 48.1298H176.93L181.871 59.5873H184.488L189.448 48.1298H186.816L183.275 56.3138Z" fill="white"/>
<path d="M199.85 54.8033H205.17V52.7421H199.85V50.2566H205.872V48.1298H197.213V59.5873H206.084V57.4555H199.85V54.8033Z" fill="white"/>
<path d="M233.536 55.9047C234.237 55.6122 234.834 55.1181 235.254 54.4851C235.669 53.8289 235.88 53.064 235.86 52.2875C235.881 51.5014 235.67 50.7265 235.254 50.0597C234.834 49.4235 234.237 48.9246 233.536 48.6249C232.697 48.2734 231.793 48.1013 230.884 48.1197H225.923V59.5773H228.575V56.3947H231.005L233.208 59.5925H236.072L233.511 55.9147L233.536 55.9047ZM232.571 50.8124C232.957 51.2045 233.173 51.7325 233.173 52.2825C233.173 52.8325 232.957 53.3604 232.571 53.7526C232.04 54.1359 231.389 54.3153 230.737 54.2578H228.575V50.2617H230.737C231.395 50.2195 232.046 50.4149 232.571 50.8124Z" fill="white"/>
<path d="M247.146 54.8033H252.466V52.7421H247.146V50.2566H253.168V48.1298H244.509V59.5873H253.38V57.4555H247.146V54.8033Z" fill="white"/>
<path d="M269.44 53.793C269.035 53.5438 268.598 53.3501 268.141 53.2171C267.666 53.0757 267.192 52.9494 266.717 52.8433C266.242 52.7372 265.807 52.6261 265.413 52.5149C265.073 52.4286 264.751 52.2814 264.464 52.0805C264.35 51.9999 264.258 51.8929 264.196 51.7688C264.133 51.6446 264.102 51.5071 264.105 51.3681C264.102 51.1303 264.176 50.8979 264.317 50.7063C264.503 50.4855 264.749 50.3225 265.024 50.2365C265.431 50.107 265.856 50.0473 266.282 50.0597C266.814 50.0634 267.342 50.1382 267.853 50.282C268.415 50.4403 268.954 50.6676 269.46 50.9589L270.278 48.9382C269.706 48.5848 269.08 48.3272 268.424 48.1754C267.728 48.0054 267.014 47.9205 266.297 47.9228C265.374 47.9021 264.457 48.0742 263.605 48.428C262.958 48.6964 262.402 49.1454 262.003 49.7213C261.651 50.2528 261.465 50.877 261.468 51.5147C261.446 52.0444 261.574 52.5696 261.837 53.0302C262.077 53.4185 262.406 53.7441 262.796 53.98C263.206 54.2281 263.643 54.4265 264.1 54.571C264.57 54.7226 265.045 54.8489 265.519 54.955C265.994 55.0611 266.429 55.1671 266.823 55.2833C267.163 55.3724 267.485 55.5212 267.773 55.7228C267.887 55.8061 267.979 55.9158 268.041 56.0424C268.104 56.1691 268.135 56.3091 268.131 56.4503C268.132 56.684 268.052 56.9108 267.904 57.0919C267.711 57.2993 267.464 57.4495 267.192 57.5263C266.779 57.6387 266.351 57.6898 265.924 57.6779C264.572 57.6651 263.255 57.2501 262.14 56.4857L261.24 58.5064C261.851 58.9457 262.535 59.2709 263.261 59.4663C264.119 59.7114 265.007 59.8338 265.898 59.83C266.827 59.8567 267.75 59.6845 268.606 59.3248C269.254 59.0534 269.812 58.6053 270.218 58.0315C270.574 57.5111 270.763 56.8941 270.758 56.2634C270.777 55.7435 270.649 55.2289 270.389 54.7781C270.157 54.3781 269.831 54.0402 269.44 53.793Z" fill="white"/>
<path d="M277.952 50.2869H281.62V59.5873H284.267V50.2869H287.935V48.1298H277.952V50.2869Z" fill="white"/>
<path d="M305.711 49.6152C305.137 49.0771 304.465 48.6551 303.731 48.3724C302.12 47.7863 300.355 47.7863 298.745 48.3724C297.997 48.652 297.311 49.0741 296.724 49.6152C296.16 50.1467 295.712 50.788 295.405 51.4995C294.786 53.0096 294.786 54.7029 295.405 56.2129C295.71 56.9229 296.155 57.5639 296.714 58.0972C297.296 58.644 297.984 59.0668 298.735 59.34C299.543 59.6398 300.399 59.7888 301.261 59.7795C302.107 59.7882 302.949 59.6391 303.741 59.34C304.476 59.0611 305.149 58.6405 305.721 58.1023C306.285 57.5728 306.734 56.9332 307.04 56.223C307.359 55.4759 307.52 54.6711 307.515 53.8588C307.525 53.0659 307.372 52.2793 307.063 51.5489C306.754 50.8185 306.297 50.1601 305.721 49.6152H305.711ZM304.549 55.344C304.377 55.7806 304.117 56.1777 303.786 56.511C303.468 56.8264 303.093 57.0784 302.68 57.2536C302.229 57.429 301.749 57.5164 301.266 57.5112C300.779 57.5165 300.295 57.429 299.841 57.2536C299.414 57.0843 299.027 56.8279 298.704 56.5009C298.376 56.165 298.118 55.7664 297.946 55.3288C297.765 54.8565 297.675 54.3544 297.679 53.8486C297.673 53.3394 297.764 52.8338 297.946 52.3583C298.119 51.9232 298.379 51.5278 298.709 51.1964C299.033 50.8705 299.42 50.6143 299.846 50.4437C300.297 50.2642 300.78 50.175 301.266 50.181C301.753 50.1759 302.237 50.2651 302.69 50.4437C303.118 50.6118 303.505 50.8683 303.827 51.1964C304.151 51.531 304.407 51.9257 304.58 52.3583C304.936 53.3181 304.936 54.3741 304.58 55.3339L304.549 55.344Z" fill="white"/>
<path d="M323.66 55.9047C324.361 55.6135 324.96 55.1191 325.378 54.4851C325.793 53.8289 326.004 53.064 325.984 52.2875C326.005 51.5014 325.795 50.7265 325.378 50.0597C324.959 49.4225 324.362 48.9233 323.66 48.6249C322.821 48.2734 321.917 48.1013 321.008 48.1197H316.052V59.5773H318.704V56.3947H321.134L323.332 59.5925H326.201L323.64 55.9147L323.66 55.9047ZM322.695 50.8124C323.083 51.2032 323.301 51.7317 323.301 52.2825C323.301 52.8333 323.083 53.3617 322.695 53.7526C322.164 54.1359 321.513 54.3153 320.861 54.2578H318.704V50.2617H320.866C321.522 50.2207 322.171 50.4161 322.695 50.8124Z" fill="white"/>
<path d="M337.275 57.4555V54.8033H342.594V52.7421H337.275V50.2566H343.297V48.1298H334.638V59.5873H343.509V57.4555H337.275Z" fill="white"/>
<path d="M222.039 37.2228H222.26L221.963 37.1876L222.039 37.2228Z" fill="#FFDC33"/>
<path d="M19.8476 20.6881H11.9869V17.849H4.36365V15.2725H11.9869V10.4581H4.36365V7.88169H11.9869V5.04761H19.8476C21.3088 5.04668 22.7407 5.45756 23.9792 6.23313C25.2176 7.00871 26.2124 8.11758 26.8495 9.43261H32.841C32.7083 9.03745 32.5549 8.64961 32.3812 8.27069C31.7236 6.78473 30.7187 5.47841 29.4512 4.46159C28.0629 3.39315 26.471 2.61956 24.7731 2.18826C22.9775 1.71592 21.1285 1.47652 19.2717 1.47595H0.857666V36.8389H8.80928V24.2699H14.9877L24.2831 36.8187H33.5937L23.4294 24.0324L25.0611 23.7041C26.635 23.3788 28.1046 22.6709 29.34 21.6429C30.626 20.5969 31.6616 19.2764 32.3711 17.7782C32.5839 17.3095 32.7645 16.8268 32.9117 16.3334H26.8495C26.2081 17.6428 25.2115 18.7454 23.9734 19.5155C22.7353 20.2855 21.3056 20.6918 19.8476 20.6881Z" fill="#00B9FF"/>
<path d="M41.3829 9.43261H44.3837H58.5036H63.3888V1.47595H58.5036H44.3837H42.3478H34.6134V9.43261H39.4985H41.3829Z" fill="#00B9FF"/>
<path d="M44.3837 16.3085H42.3478H41.3829H39.928H34.6134V22.401V36.8189H63.3888V30.4738H42.3478V22.401H44.3837H58.0742H62.535V16.3085H58.0742H44.3837Z" fill="#00B9FF"/>
<path d="M107.119 1.25891L89.1595 36.8188H97.6971L101.491 29.3977H119.299L123.088 36.8188H131.843L113.934 1.25891H107.119ZM116.212 23.1031H104.648L106.74 18.8444L110.524 9.12464L114.217 19.0667L116.212 23.1031Z" fill="#00C357"/>
<path d="M140.43 1.47595H132.428V36.8237H140.43V1.47595Z" fill="#00C357"/>
<path d="M166.351 23.7041C167.926 23.379 169.398 22.6712 170.635 21.6429C171.91 20.5929 172.938 19.2741 173.644 17.7807C174.351 16.2873 174.719 14.6563 174.722 13.0043C174.712 11.3691 174.352 9.75513 173.666 8.27069C173.006 6.78584 172.002 5.47993 170.736 4.46159C169.347 3.39412 167.755 2.62063 166.058 2.18826C164.267 1.71732 162.423 1.47793 160.572 1.47595H142.152V36.8389H150.114V24.2699H156.293L165.583 36.8187H174.868L164.704 24.0324L166.351 23.7041ZM150.114 18.1925V7.82107H160.572C162.196 7.7369 163.791 8.27938 165.027 9.33662C165.56 9.7976 165.986 10.3679 166.278 11.0086C166.57 11.6494 166.721 12.3456 166.72 13.0497C166.721 13.7356 166.576 14.4138 166.295 15.0393C166.014 15.6648 165.602 16.2231 165.088 16.677C163.907 17.7222 162.364 18.2659 160.789 18.1925H150.114Z" fill="#00C357"/>
<path d="M272.481 21.552L272.966 26.3765L270.232 22.5522L252.086 1.47595H245.135V36.8187H252.925V13.4741L272.627 36.8187H280.215V1.47595H272.481V21.552Z" fill="#FFDC33"/>
<path d="M312.108 12.0445C312.103 11.0703 312.002 10.0989 311.805 9.14477C310.694 3.48165 305.586 0.728394 296.195 0.728394C291.547 0.728394 287.9 1.77918 285.359 3.86054C283.07 5.73478 281.822 8.68001 281.646 12.6255H288.865C289.081 11.0275 289.913 9.57729 291.183 8.58402C292.78 7.38111 294.743 6.76554 296.74 6.84113C298.531 6.77283 300.303 7.22937 301.838 8.15461C303.677 9.3519 304.061 10.8018 304.061 11.8121C304.061 13.4691 303.091 15.0049 301.166 16.3891L281.853 29.6603L284.621 36.7986H311.522V30.2211L291.527 30.4686L305.238 22.3857C309.86 19.6375 312.108 16.2527 312.108 12.0445Z" fill="#DA667B"/>
<path d="M340.17 15.6363C336.911 13.6458 332.84 12.6355 328.045 12.6355C325.897 12.6367 323.758 12.9134 321.68 13.4589L320.24 13.8378L320.629 10.4379V10.3874C320.736 9.85968 320.801 9.3241 320.821 8.78597L320.872 7.82107H342.13V1.47595H314.951L313.289 18.7128L316.461 21.3954C317.823 20.6291 319.29 20.069 320.816 19.7333C322.965 19.2004 325.17 18.9307 327.384 18.9301C330.192 18.9301 332.541 19.3645 334.365 20.2284C335.325 20.6421 336.138 21.3372 336.695 22.2219C337.253 23.1066 337.529 24.1394 337.487 25.1843C337.487 26.5786 336.982 28.5286 334.456 29.9178C332.5 30.9612 330.307 31.4831 328.091 31.4334C326.044 31.4475 324.027 30.9453 322.226 29.9734C321.549 29.6245 320.96 29.1292 320.499 28.5235C320.039 27.9179 319.719 27.2172 319.563 26.4725H312.395C312.597 30.615 314.031 33.4945 316.765 35.2526C319.796 37.2178 323.59 38.213 327.964 38.213C330.767 38.2236 333.55 37.7379 336.184 36.7782C338.621 35.9218 340.786 34.4328 342.458 32.464C344.034 30.5796 344.838 28.1648 344.838 25.2954C344.838 20.7134 343.307 17.556 340.17 15.6363Z" fill="#DA667B"/>
<path d="M95.474 20.5719C96.737 18.7432 97.3786 16.4143 97.3786 13.6458C97.3786 9.60437 96.1257 6.63389 93.5442 4.59295C90.9627 2.552 87.3506 1.47595 82.9353 1.47595H65.2892V36.8389H73.2358V26.1391H82.804C85.3673 26.1718 87.9113 25.6909 90.2858 24.7245C92.3808 23.8719 94.1832 22.4293 95.474 20.5719ZM87.679 18.0864C86.512 19.3191 84.8954 19.9657 82.8545 20.0061H73.256V7.82107H82.9252C84.946 7.82107 86.5474 8.40708 87.7043 9.5589C88.2631 10.1035 88.7053 10.756 89.0041 11.4768C89.3028 12.1977 89.4519 12.9717 89.4421 13.7519C89.4473 14.5548 89.2943 15.3508 88.9917 16.0946C88.6892 16.8383 88.2431 17.5151 87.679 18.0864Z" fill="#00C357"/>
<path d="M20.0155 12.09V9.43273V7.41199L16.4337 13.651H18.4545V18.329L19.6164 16.3083L22.0362 12.09H20.0155Z" fill="#00B9FF"/>
<path d="M243.805 18.7988V18.6927C243.812 17.2274 243.671 15.7652 243.386 14.3279C243.284 13.8352 243.158 13.348 243.007 12.8679C242.931 12.6002 242.851 12.3324 242.76 12.0748V12.0445V12.0041C242.753 11.9781 242.745 11.9527 242.734 11.9283C242.628 11.6302 242.512 11.3372 242.391 11.0493C242.378 11.0114 242.363 10.9743 242.345 10.9381L242.254 10.7209C242.118 10.4178 241.977 10.1197 241.82 9.82167C241.764 9.71053 241.704 9.60444 241.643 9.4933V9.45795C241.552 9.29124 241.466 9.11443 241.365 8.95277C241.264 8.79111 241.229 8.71028 241.153 8.58903L241.062 8.47284C241.007 8.40211 240.951 8.32633 240.9 8.25055L240.709 7.98281C240.613 7.84641 240.522 7.70495 240.421 7.56855L240.289 7.40185C240.153 7.21998 240.016 7.04822 239.88 6.89666L239.749 6.74006C239.703 6.68449 239.663 6.62891 239.612 6.57334L239.577 6.53293C239.365 6.29044 239.147 6.053 238.935 5.83072L238.875 5.76504C238.642 5.5276 238.41 5.30028 238.167 5.078L238.051 4.96685L238.016 4.93654L237.935 4.86581C237.758 4.71426 237.581 4.57281 237.4 4.4263L237.329 4.37074C237.137 4.21919 236.94 4.06763 236.738 3.92618C236.738 3.92618 236.738 3.92618 236.738 3.90092H236.707L236.202 3.54729C235.94 3.37047 235.697 3.20376 235.404 3.0421C235.111 2.88044 234.944 2.77941 234.712 2.65312L234.646 2.61775L234.348 2.46114L234.116 2.33485C233.722 2.14288 233.323 1.97111 232.919 1.8044C230.463 0.798325 227.842 0.257017 225.189 0.208011H224.714H224.356C224.123 0.208011 223.896 0.208011 223.669 0.208011H223.643H223.254H223.199L222.588 0.258532H222.486L222.148 0.288842H222.097C221.845 0.314101 221.592 0.354522 221.34 0.389885H221.269L220.693 0.490928H220.562L220.218 0.561646L220.112 0.586899L219.607 0.69804H219.506L219.364 0.733407L219.258 0.768773C218.879 0.864758 218.511 0.970849 218.142 1.08704L217.94 1.15272L217.844 1.18303H217.793C217.45 1.29417 217.116 1.42551 216.783 1.55686C216.712 1.55686 216.641 1.60232 216.571 1.63263H216.53L216.47 1.6579L215.838 1.9408L215.333 2.17319C215.166 2.24896 215.005 2.3399 214.828 2.42578L214.681 2.50155L214.611 2.53692L214.429 2.643C214.252 2.74404 214.07 2.85013 213.893 2.96127L213.56 3.1684C213.378 3.28459 213.196 3.41089 213.009 3.53719L212.807 3.67864L212.716 3.7443C212.388 3.98174 212.075 4.2495 211.771 4.48188L211.706 4.53744L211.635 4.59302L211.438 4.76982L211.362 4.8355L211.145 5.03253L210.918 5.2447C210.743 5.41309 210.574 5.58149 210.413 5.74988L209.862 6.33086L209.776 6.43694C209.226 7.06654 208.719 7.73326 208.26 8.43241C208.26 8.45767 208.23 8.48798 208.21 8.51324L208.164 8.59408C208.013 8.83656 207.871 9.074 207.735 9.31648C207.7 9.38216 207.659 9.44785 207.624 9.51857V9.55898L207.558 9.68022C207.528 9.74589 207.498 9.81663 207.462 9.8823C207.427 9.94798 207.361 10.0844 207.311 10.1905C207.26 10.2965 207.255 10.3269 207.225 10.3925C207.195 10.4582 207.189 10.4582 207.179 10.4885L207.134 10.5946C207.033 10.8219 206.937 11.0594 206.851 11.2918C206.821 11.3675 206.795 11.4383 206.77 11.509C206.747 11.5669 206.727 11.6259 206.71 11.6858C206.654 11.8323 206.608 11.9788 206.558 12.1253C206.437 12.4941 206.321 12.873 206.22 13.262L206.189 13.358V13.4388C206.118 13.7267 206.058 14.0198 205.997 14.3128L205.967 14.4643C205.916 14.7472 205.871 15.0402 205.825 15.3282L205.795 15.5606C205.76 15.8081 205.74 16.0658 205.714 16.3032C205.714 16.4345 205.684 16.5608 205.674 16.6871L205.644 17.2428L205.613 17.7783C205.613 17.9097 205.613 18.0461 205.613 18.1875C205.613 18.329 205.613 18.4199 205.613 18.5361V18.6068C205.578 19.1777 205.538 19.7536 205.477 20.3295C205.355 21.6841 205.014 23.0098 204.467 24.2548C204.361 24.4899 204.243 24.7192 204.113 24.9419C203.784 25.504 203.409 26.0379 202.991 26.5382C202.78 26.7957 202.556 27.0419 202.319 27.2758C202.119 27.4783 201.908 27.6705 201.688 27.8517C201.516 27.9982 201.339 28.1346 201.183 28.271C201.097 28.3316 201.021 28.3973 200.935 28.4529L200.743 28.5842C200.521 28.7358 200.294 28.8722 200.056 29.0035H200.021C199.783 29.1349 199.546 29.2511 199.304 29.3622L198.995 29.4936L198.541 29.6805L198.227 29.7916L197.576 29.9886L197.227 30.0745L196.838 30.1604L196.474 30.2261C196.252 30.2665 196.03 30.2968 195.803 30.317L195.464 30.3524H194.913H194.62C193.922 30.3523 193.226 30.288 192.539 30.1604L192.342 30.12L191.877 30.0139C191.761 29.9886 191.65 29.9533 191.534 29.9179C191.418 29.8826 191.291 29.8522 191.175 29.8118H191.094C190.796 29.7108 190.498 29.5946 190.205 29.4683L190.099 29.4228C189.806 29.2965 189.518 29.1551 189.23 28.9985C189.089 28.9177 188.952 28.8267 188.816 28.7408C188.679 28.655 188.583 28.6044 188.472 28.5287C188.255 28.3872 188.053 28.2306 187.851 28.074C187.735 27.978 187.614 27.8972 187.497 27.7961C187.381 27.6951 187.214 27.5435 187.073 27.4122L186.856 27.2051C186.659 27.003 186.467 26.7908 186.28 26.5736L186.239 26.5231C185.824 26.0255 185.452 25.4931 185.128 24.9317C185.027 24.7549 184.931 24.5781 184.84 24.3962C184.749 24.2144 184.623 23.9416 184.522 23.7041V23.6536C184.461 23.5071 184.401 23.3556 184.345 23.199L184.163 22.6433C184.163 22.5624 184.118 22.4816 184.092 22.4008C184.067 22.3199 184.037 22.2139 184.012 22.1179C184.014 22.1045 184.014 22.0908 184.012 22.0774C183.951 21.8198 183.9 21.5723 183.855 21.2793V21.249L183.804 20.9509C183.774 20.7943 183.744 20.6276 183.724 20.4457V20.3042C183.724 20.1982 183.724 20.1022 183.724 20.0011C183.724 19.7637 183.688 19.5313 183.673 19.304C183.658 19.0767 183.643 18.7634 183.643 18.5007C183.547 16.3678 184.005 14.2464 184.971 12.3426C185.007 12.2819 185.042 12.2314 185.078 12.1758C185.179 12.0041 185.285 11.8357 185.396 11.6706L185.482 11.5443L185.785 11.1251L185.861 11.0291C185.972 10.8826 186.088 10.7411 186.204 10.6047L186.25 10.5542C186.438 10.342 186.63 10.1399 186.825 9.94797L187.134 9.67012C187.23 9.57919 187.331 9.49331 187.432 9.40743C187.533 9.32155 187.699 9.1902 187.841 9.08916L188.053 8.93256L188.558 8.60419L188.826 8.44758L189.099 8.29096C190.526 7.52139 192.103 7.06825 193.721 6.96234C193.974 6.96234 194.226 6.96234 194.479 6.96234H194.661C194.853 6.96234 195.04 6.96233 195.227 6.98759H195.363H195.651C195.919 7.0179 196.187 7.05327 196.454 7.09873H196.515C196.833 7.1543 197.151 7.23009 197.465 7.31092H197.525C197.838 7.3968 198.147 7.49783 198.45 7.60897C198.938 7.79152 199.414 8.00584 199.874 8.25055C200.016 8.32633 200.147 8.41726 200.289 8.49809L203.158 2.51671L203.355 2.10245C203.229 2.04183 203.092 1.99131 202.961 1.93069C202.708 1.81955 202.456 1.72357 202.198 1.62254C201.941 1.5215 201.738 1.44572 201.506 1.36489H201.456H201.405C201.193 1.29416 200.991 1.21839 200.774 1.15272C198.747 0.520189 196.638 0.188283 194.514 0.167603H194.206C191.036 0.188282 187.91 0.916631 185.057 2.29948C182.164 3.69989 179.716 5.87535 177.985 8.58398C177.976 8.60427 177.964 8.62302 177.949 8.63954C177.773 8.92244 177.601 9.21545 177.444 9.50846L177.247 9.88735C177.146 10.0827 177.05 10.2797 176.959 10.4784C176.914 10.5795 176.858 10.6754 176.818 10.7765C176.777 10.8775 176.777 10.8826 176.752 10.9331C176.626 11.2362 176.504 11.5444 176.393 11.8576L176.302 12.1304C176.201 12.4183 176.115 12.7164 176.03 13.0144L175.949 13.3075C175.746 14.0971 175.593 14.8985 175.489 15.7071C175.489 15.8233 175.464 15.9395 175.449 16.0607C175.413 16.3689 175.383 16.6821 175.363 17.0004C175.363 17.1266 175.363 17.2529 175.338 17.3792C175.312 17.8036 175.302 18.2381 175.297 18.6877V18.7634V18.8594C175.292 20.3249 175.435 21.7871 175.721 23.2242C175.802 23.6334 175.908 24.0275 176.014 24.4165C176.407 25.8868 177.004 27.2949 177.788 28.5994C177.636 28.3518 177.505 28.0942 177.373 27.8365C177.409 27.9123 177.449 27.9831 177.49 28.0588C177.591 28.2356 177.682 28.4226 177.788 28.5994C177.894 28.7762 177.924 28.8419 178.005 28.9631C178.005 29.0035 178.06 29.0389 178.091 29.0793L178.257 29.3016C178.333 29.4178 178.409 29.5239 178.485 29.63C178.561 29.736 178.646 29.8674 178.732 29.9836L178.864 30.1503C179 30.3271 179.136 30.5039 179.273 30.6555L179.404 30.8121C179.447 30.8682 179.493 30.9222 179.541 30.9738L179.581 31.0192C179.788 31.2617 180.005 31.5244 180.218 31.7214L180.278 31.7871C180.511 32.0245 180.743 32.2519 180.985 32.4742L181.102 32.5853L181.137 32.6156L181.218 32.6863C181.395 32.8379 181.577 32.9844 181.758 33.1258C181.778 33.147 181.8 33.1657 181.824 33.1814C182.016 33.333 182.213 33.4795 182.415 33.626H182.445L182.951 33.9796C183.213 34.1564 183.481 34.3231 183.754 34.4848C184.027 34.6464 184.209 34.7475 184.441 34.8738L184.507 34.9091L184.805 35.0657L185.037 35.192C185.431 35.384 185.83 35.5558 186.234 35.7225C188.69 36.7286 191.311 37.2698 193.964 37.3189H194.439H194.802H195.484H195.873H195.929L196.54 37.2683H196.641L196.98 37.233H197.03L197.788 37.1319H197.859L198.435 37.0309H198.566L198.915 36.9652H199.016L199.521 36.8541H199.622L199.763 36.8137L199.869 36.7834C200.248 36.6874 200.617 36.5813 200.991 36.4651L201.193 36.3994L201.284 36.3691H201.334C201.678 36.258 202.011 36.1266 202.345 35.9953L202.557 35.9195H202.602L202.658 35.8942L203.289 35.6113L203.795 35.379C203.961 35.3032 204.123 35.2122 204.3 35.1264L204.446 35.0506L204.517 35.0152L204.699 34.9091C204.876 34.8081 205.058 34.702 205.234 34.5909L205.568 34.3837C205.75 34.2676 205.932 34.1413 206.118 34.0099C206.189 33.9644 206.255 33.924 206.321 33.8735C206.386 33.823 206.381 33.828 206.411 33.8078C206.745 33.5653 207.058 33.3026 207.366 33.0602L207.432 33.0046L207.503 32.949L207.7 32.7722L207.775 32.7065L207.993 32.5095L208.22 32.2973C208.397 32.1256 208.569 31.9589 208.725 31.7922L209.276 31.2061C209.306 31.1758 209.331 31.1405 209.362 31.1051C209.91 30.4741 210.417 29.8075 210.877 29.1096C210.891 29.0816 210.906 29.0546 210.923 29.0288L210.968 28.948C211.12 28.7055 211.266 28.468 211.398 28.2255L211.509 28.0235V27.9831L211.574 27.8618C211.605 27.7961 211.635 27.7254 211.67 27.6597L211.822 27.3516C211.852 27.2859 211.878 27.2152 211.908 27.1495C211.938 27.0838 211.943 27.0838 211.958 27.0535C211.97 27.0173 211.983 26.9819 211.999 26.9474C212.1 26.715 212.196 26.4827 212.287 26.2503L212.363 26.0331C212.388 25.9724 212.403 25.9169 212.423 25.8562C212.479 25.7097 212.524 25.5632 212.575 25.4167C212.696 25.0479 212.817 24.6691 212.913 24.2801L212.944 24.179V24.1032C213.014 23.8153 213.075 23.5223 213.135 23.2293L213.166 23.0777C213.216 22.7948 213.262 22.5018 213.307 22.2088L213.338 21.9815C213.373 21.7339 213.393 21.4763 213.418 21.2338C213.418 21.1075 213.449 20.9812 213.459 20.8549C213.469 20.7286 213.459 20.4861 213.489 20.2992C213.519 20.1123 213.514 19.9456 213.519 19.7637C213.524 19.5818 213.519 19.496 213.519 19.3545C213.519 19.2131 213.519 19.1221 213.519 19.0059V18.9352C213.555 18.3593 213.595 17.7884 213.656 17.2125C213.78 15.8584 214.121 14.5331 214.666 13.2872C214.777 13.0498 214.888 12.8174 215.02 12.5951C215.35 12.0354 215.725 11.5032 216.141 11.0038C216.359 10.7411 216.586 10.4986 216.813 10.2662C217.014 10.0637 217.225 9.87151 217.445 9.69033C217.617 9.54383 217.793 9.40237 217.95 9.27102C218.031 9.2104 218.107 9.14473 218.192 9.08916L218.384 8.95781C218.607 8.80625 218.834 8.66986 219.071 8.53851H219.112C219.344 8.41222 219.582 8.29602 219.824 8.18488L220.132 8.05352L220.587 7.86661L220.9 7.75547C221.117 7.67969 221.335 7.61908 221.552 7.55845L221.9 7.47256L222.289 7.38669L222.653 7.32102C222.875 7.2806 223.098 7.25029 223.325 7.23009L223.664 7.19472L224.214 7.16945H224.507C225.206 7.16703 225.902 7.23132 226.589 7.36142L226.786 7.40185C226.942 7.43216 227.094 7.46752 227.25 7.50793C227.407 7.54835 227.478 7.56855 227.594 7.60392C227.71 7.63928 227.836 7.66959 227.953 7.71L228.033 7.73527C228.331 7.83631 228.63 7.9525 228.923 8.07879L229.029 8.12426C229.322 8.25055 229.61 8.392 229.898 8.54861C230.039 8.62439 230.175 8.71532 230.312 8.8012L230.66 9.01843C230.873 9.15988 231.075 9.3165 231.277 9.47311C231.393 9.56909 231.514 9.64991 231.63 9.75095C231.747 9.85199 231.913 10.0035 232.055 10.1349L232.272 10.342C232.467 10.5441 232.659 10.7563 232.848 10.9785L232.888 11.024C233.075 11.2463 233.252 11.4787 233.424 11.7212C233.441 11.7459 233.459 11.7696 233.479 11.7919C233.611 11.9839 233.732 12.1859 233.858 12.388C233.904 12.4688 233.954 12.5396 234 12.6204C234.101 12.7871 234.192 12.9639 234.283 13.1256C234.373 13.2872 234.505 13.5853 234.606 13.8278C234.672 13.9895 234.732 14.1562 234.793 14.333L234.823 14.4138C234.874 14.5654 234.924 14.7169 234.97 14.8735C235.015 15.0301 235.03 15.0655 235.055 15.1665C235.081 15.2676 235.111 15.3383 235.131 15.4242V15.4646C235.197 15.7222 235.242 15.995 235.288 16.2678V16.2931L235.343 16.5912C235.374 16.7528 235.399 16.9094 235.419 17.0963V17.2277C235.455 17.5712 235.485 17.9097 235.505 18.238C235.505 18.334 235.505 18.43 235.505 18.526C235.505 18.6978 235.505 18.8695 235.505 19.0312C235.566 21.2508 235.028 23.4458 233.949 25.3864C233.914 25.447 233.878 25.4975 233.848 25.5531C233.742 25.7249 233.636 25.8916 233.525 26.0583L233.439 26.1846L233.136 26.6039L233.06 26.6999C232.949 26.8464 232.833 26.9878 232.716 27.1242L232.671 27.1748C232.486 27.3869 232.294 27.589 232.095 27.781L231.787 28.0588C231.691 28.1498 231.59 28.2357 231.489 28.3215C231.388 28.4074 231.221 28.5388 231.08 28.6398L230.867 28.7964C230.706 28.9076 230.539 29.0187 230.362 29.1197L230.095 29.2814L229.822 29.438C229.594 29.5592 229.362 29.6704 229.13 29.7765C226.437 30.9829 223.379 31.0916 220.607 30.0796C219.374 29.6132 218.212 28.9791 217.152 28.1952C216.975 28.0689 214.656 26.4422 214.676 26.3867C214.575 26.7201 214.474 27.0535 214.358 27.397C214.328 27.4678 214.302 27.5435 214.277 27.6143C214.176 27.882 214.065 28.1498 213.949 28.4175C213.833 28.6853 213.701 28.9631 213.565 29.2258L213.434 29.4734C213.262 29.7866 213.085 30.0947 212.893 30.3928L212.848 30.4736C212.389 31.1727 211.882 31.8394 211.332 32.4691L211.246 32.5752L211.1 32.7318C211.736 33.237 213.247 34.3181 213.393 34.4191C214.156 34.9467 214.964 35.4049 215.808 35.7882L215.52 35.6518C215.646 35.7124 215.778 35.7629 215.909 35.8185L215.843 35.7882C216.151 35.9296 216.47 36.0509 216.788 36.1721L216.672 36.1317L217.051 36.2832L217.369 36.3893H217.419H217.47L217.627 36.4398L218.101 36.6015L218.283 36.652L218.728 36.7783C219.056 36.8692 219.385 36.9501 219.738 37.0259L220.173 37.1117C220.51 37.1825 220.846 37.2431 221.183 37.2936C221.335 37.3189 221.486 37.334 221.638 37.3542H221.769L222.077 37.3896L222.325 37.4148H222.668L223.078 37.4502H223.3H223.376H223.563H223.613H224.118C226.288 37.489 228.452 37.1977 230.534 36.5864H230.585C230.857 36.5055 231.125 36.4146 231.398 36.3237H231.459L231.752 36.2226L232.065 36.1014C232.671 35.874 233.262 35.6265 233.848 35.3436C235.843 34.3754 237.633 33.0305 239.117 31.383L239.274 31.2112L239.299 31.1809L239.365 31.1051L239.744 30.6504C239.809 30.5696 239.88 30.4938 239.946 30.4079L240.097 30.2109L240.122 30.1756L240.183 30.0947C240.224 30.0392 240.269 29.9836 240.309 29.923C240.501 29.6603 240.693 29.3925 240.875 29.1147L240.911 29.0591C240.919 29.0388 240.931 29.02 240.946 29.0035C241.123 28.7206 241.295 28.4276 241.451 28.1346L241.648 27.7557C241.749 27.557 241.845 27.36 241.936 27.1647C241.982 27.0636 242.037 26.9676 242.083 26.8666C242.128 26.7656 242.118 26.7605 242.143 26.71V26.6696L242.179 26.5887C242.285 26.326 242.391 26.0836 242.487 25.7906V25.74V25.6845C242.487 25.6289 242.527 25.5733 242.542 25.5178C242.542 25.447 242.583 25.3814 242.608 25.3106C242.674 25.1035 242.739 24.8964 242.8 24.6842V24.6337C242.809 24.591 242.821 24.5488 242.835 24.5074L242.881 24.3407C242.881 24.2851 242.906 24.2295 242.916 24.179V24.2043C242.992 23.9012 243.063 23.5981 243.123 23.2848C243.123 23.2848 243.123 23.2848 243.123 23.3152C243.121 23.2849 243.121 23.2545 243.123 23.2242V23.1434C243.159 22.9514 243.194 22.7544 243.224 22.5574L243.164 22.8958C243.204 22.6685 243.239 22.4361 243.275 22.1987C243.275 22.2795 243.275 22.3654 243.24 22.4462C243.24 22.3503 243.239 22.2593 243.28 22.1633C243.32 22.0674 243.305 22.0168 243.315 21.9411L243.346 21.6885C243.401 21.2338 243.437 20.7741 243.467 20.3042V20.2689C243.492 19.8445 243.507 19.4202 243.507 18.9706C243.507 19.4101 243.507 19.8344 243.467 20.2588C243.492 19.8294 243.507 19.4 243.507 18.9605L243.805 18.7988ZM176.02 24.4165C176.045 24.5074 176.075 24.5933 176.105 24.6791C176.186 24.957 176.267 25.2298 176.363 25.5026C176.237 25.1439 176.121 24.7852 176.02 24.4165ZM183.456 19.2131C183.456 19.0413 183.456 18.8695 183.456 18.7079C183.456 18.8796 183.456 19.0615 183.456 19.2383V19.2131ZM184.224 23.4415C184.225 23.4246 184.225 23.4078 184.224 23.3909C184.216 23.4082 184.208 23.4251 184.198 23.4415H184.224ZM226.341 30.4787C226.028 30.5292 225.72 30.5645 225.401 30.5848C225.72 30.5595 226.028 30.5241 226.341 30.4787ZM229.579 36.8187L229.195 36.9097C228.821 36.9905 228.443 37.0562 228.059 37.1168L227.7 37.1673C227.301 37.2229 226.902 37.2684 226.498 37.3037H226.23C225.79 37.334 225.351 37.3542 224.906 37.3593C225.351 37.3593 225.79 37.3593 226.23 37.3037H226.498C226.902 37.2684 227.301 37.2229 227.7 37.1673L228.059 37.1168C228.443 37.0562 228.821 36.9905 229.195 36.9097L229.579 36.8187C229.857 36.7531 230.135 36.6823 230.408 36.6066C230.135 36.6773 229.857 36.748 229.579 36.8137V36.8187ZM234.055 35.2476C233.494 35.5154 232.924 35.7528 232.348 35.9751C234.98 34.9786 237.35 33.3922 239.274 31.3375C237.799 32.9595 236.027 34.2849 234.055 35.2426V35.2476Z" fill="#FFDC33"/>
<path d="M177.793 28.5941C177.864 28.7103 177.929 28.8366 178.005 28.9528C177.929 28.8366 177.864 28.7154 177.793 28.5941Z" fill="#FFDC33"/>
</svg>
