<svg width="42" height="42" viewBox="0 0 42 42" fill="none" xmlns="http://www.w3.org/2000/svg">
<g clip-path="url(#clip0_157_329)">
<path d="M41.1347 10.7079C40.6505 8.95153 39.2319 7.56706 37.433 7.09411C34.1463 6.21606 20.9996 6.21606 20.9996 6.21606C20.9996 6.21606 7.85318 6.21606 4.56649 7.06063C2.80219 7.53328 1.34902 8.95185 0.864849 10.7079C0 13.916 0 20.5694 0 20.5694C0 20.5694 0 27.2562 0.864849 30.4308C1.34934 32.1869 2.76758 33.5717 4.56681 34.0447C7.88778 34.9227 20.9999 34.9227 20.9999 34.9227C20.9999 34.9227 34.1463 34.9227 37.433 34.0781C39.2322 33.6055 40.6505 32.2207 41.135 30.4646C41.9998 27.2562 41.9998 20.6032 41.9998 20.6032C41.9998 20.6032 42.0344 13.916 41.1347 10.7079Z" fill="#001466"/>
<path d="M16.8135 26.7163L27.7457 20.5697L16.8135 14.4231V26.7163Z" fill="white"/>
</g>
<defs>
<clipPath id="clip0_157_329">
<rect width="42" height="41" fill="white" transform="translate(0 0.0500488)"/>
</clipPath>
</defs>
</svg>
